<svg class="icon-virgo" xmlns="http://www.w3.org/2000/svg" viewBox="0 0 64 64" role="img" aria-label="Vierge (Virgo)">
  <!-- Background (modifiable in CSS) -->
  <rect class="vi-bg" x="4" y="4" width="56" height="56" rx="14"></rect>

  <!-- Virgo stroke (scaled version of your model path) -->
  <path class="vi-stroke" d="M4.434 19.749
           C4.434 19.749 1.876 17.474 1.876 13.343
           C1.876 9.212 5.349 6.122 9.435 6.122
           C12.671 6.122 16.433 8.897 17.073 11.831

           M17.073 11.831
           C17.073 25.447 17.073 45.246 17.073 45.246

           M17.073 11.831
           C17.675 9.052 21.001 6.307 24.22 6.122
           C27.79 5.918 31.666 8.631 32.377 11.831

           M32.377 11.831
           C32.377 25.447 32.377 45.246 32.377 45.246

           M32.377 11.831
           C33.129 8.631 36.123 6.122 39.259 6.122
           C42.685 6.122 44.983 7.218 46.3 9.748
           C47.504 12.063 47.09 18.494 47.09 21.125

           M47.09 21.125
           C47.09 31.641 47.09 40.471 47.09 45.246
           C47.09 50.02 52.245 52.702 54.919 52.702

           M47.09 21.125
           C47.141 18.569 50.922 14.023 54.393 14.031
           C58.23 14.041 62.223 16.929 62.223 22.828
           C62.223 28.727 59.025 35.222 54.919 38.953
           C50.813 42.683 47.013 44.958 39.972 44.566"></path>

  <style>
    .vi-bg { fill: var(--virgo-bg, #0b0b0b); }

    .vi-stroke{
      fill: none;
      stroke: var(--virgo-stroke, #ffffff);
      stroke-width: var(--virgo-stroke-width, 3.8);
      stroke-linecap: round;
      stroke-linejoin: round;
    }
  </style>
</svg>